# xmcd
#
# Track frame offsets: 
#        150
#        13480
#        29865
#        47480
#        62212
#        78427
#        91525
#        107652
#        123592
#        136797
#        150442
#
# Disc length: 2185 seconds
#
# Revision: 0
# Processed by: cddbd v1.4PL0 Copyright (c) Steve Scherf et al.
# Submitted via: ExactAudioCopy v0.90a11
#
DISCID=8908870b
DTITLE=Steve Wariner - Steve Wariner
DYEAR=1900
DGENRE=
TTITLE0=Your Memory
TTITLE1=Don't Plan On Sleepin' Tonight
TTITLE2=We'll Never Know
TTITLE3=She Never Meant A Thing To Me
TTITLE4=Well, Hello Again
TTITLE5=Don't It Break Your Heart
TTITLE6=Kansas City Lights
TTITLE7=All Roads Lead To You
TTITLE8=By Now
TTITLE9=Day Break
TTITLE10=I'm Already Taken (Bonus Track)
EXTD=
EXTT0=
EXTT1=
EXTT2=
EXTT3=
EXTT4=
EXTT5=
EXTT6=
EXTT7=
EXTT8=
EXTT9=
EXTT10=
PLAYORDER=
